# xmcd
#
# Track frame offsets: 
#        150
#        10468
#        23730
#        38542
#        53260
#        69623
#        79031
#        92605
#        103297
#        115005
#        130522
#        143575
#
# Disc length: 2065 seconds
#
# Revision: 0
# Processed by: cddbd v1.5.2PL0 Copyright (c) Steve Scherf et al.
# Submitted via: ExactAudioCopy v0.95b4
#
DISCID=89080f0c
DTITLE=Dailey and Vincent - Dailey and Vincent
DYEAR=2008
DGENRE=Bluegrass
TTITLE0=Sweet Carrie
TTITLE1=More Than A Name On A Wall
TTITLE2=Cumberland River
TTITLE3=River Of Time
TTITLE4=By The Mark
TTITLE5=Poor Boy Workin' Blues
TTITLE6=Take Me Back (And Leave Me There)
TTITLE7=My Savior Walks With Me Today
TTITLE8=Don't you Call My Name
TTITLE9=I Believe
TTITLE10=Music Of The Mountains
TTITLE11=Place On Calvary
EXTD=
EXTT0=
EXTT1=
EXTT2=
EXTT3=
EXTT4=
EXTT5=
EXTT6=
EXTT7=
EXTT8=
EXTT9=
EXTT10=
EXTT11=
PLAYORDER=
